<svg width="456" height="198" viewBox="0 0 456 100" fill="none" xmlns="http://www.w3.org/2000/svg">
<g clip-path="url(#clip0_53_1346)">
<rect width="456" height="198" fill="white"/>
<path d="M54.265 120V75.41H65.64L74.285 102.45C74.545 103.23 74.805 104.118 75.065 105.115C75.325 106.112 75.5633 107.065 75.78 107.975C76.04 108.885 76.235 109.687 76.365 110.38H76.885C76.9717 109.73 77.1233 108.95 77.34 108.04C77.5567 107.13 77.7733 106.177 77.99 105.18C78.25 104.183 78.51 103.252 78.77 102.385L87.48 75.41H98.66V120H91.445V95.56C91.445 93.9133 91.4667 92.2017 91.51 90.425C91.5533 88.6483 91.5967 87.0667 91.64 85.68C91.6833 84.2933 91.705 83.405 91.705 83.015H91.185C91.0983 83.4917 90.8817 84.315 90.535 85.485C90.2317 86.6117 89.9067 87.825 89.56 89.125C89.2133 90.425 88.8883 91.5517 88.585 92.505L79.55 120H73.115L64.08 92.57C63.82 91.7467 63.5383 90.7717 63.235 89.645C62.9317 88.5183 62.6283 87.37 62.325 86.2C62.0217 85.03 61.7617 83.9683 61.545 83.015H61.025C61.0683 84.055 61.09 85.3333 61.09 86.85C61.1333 88.3667 61.1767 89.905 61.22 91.465C61.2633 92.9817 61.285 94.3467 61.285 95.56V120H54.265ZM122.886 120.78C119.332 120.78 116.321 120.152 113.851 118.895C111.424 117.595 109.582 115.623 108.326 112.98C107.112 110.337 106.506 106.978 106.506 102.905C106.506 98.7883 107.112 95.43 108.326 92.83C109.582 90.1867 111.424 88.2367 113.851 86.98C116.321 85.68 119.332 85.03 122.886 85.03C126.526 85.03 129.559 85.68 131.986 86.98C134.412 88.2367 136.232 90.1867 137.446 92.83C138.702 95.43 139.331 98.7883 139.331 102.905C139.331 106.978 138.702 110.337 137.446 112.98C136.232 115.623 134.412 117.595 131.986 118.895C129.559 120.152 126.526 120.78 122.886 120.78ZM122.886 115.19C125.052 115.19 126.829 114.778 128.216 113.955C129.602 113.088 130.621 111.788 131.271 110.055C131.964 108.322 132.311 106.133 132.311 103.49V102.32C132.311 99.6767 131.964 97.4883 131.271 95.755C130.621 94.0217 129.602 92.7433 128.216 91.92C126.829 91.0533 125.052 90.62 122.886 90.62C120.762 90.62 119.007 91.0533 117.621 91.92C116.234 92.7433 115.194 94.0217 114.501 95.755C113.851 97.4883 113.526 99.6767 113.526 102.32V103.49C113.526 106.133 113.851 108.322 114.501 110.055C115.194 111.788 116.234 113.088 117.621 113.955C119.007 114.778 120.762 115.19 122.886 115.19ZM146.221 120V85.81H151.811L152.396 90.685H152.851C153.675 89.4283 154.65 88.3883 155.776 87.565C156.903 86.7417 158.138 86.1133 159.481 85.68C160.868 85.2467 162.385 85.03 164.031 85.03C166.198 85.03 168.105 85.42 169.751 86.2C171.398 86.9367 172.676 88.15 173.586 89.84C174.54 91.53 175.016 93.805 175.016 96.665V120H168.256V97.705C168.256 96.405 168.083 95.3217 167.736 94.455C167.433 93.5883 166.978 92.895 166.371 92.375C165.765 91.855 165.05 91.4867 164.226 91.27C163.403 91.0533 162.493 90.945 161.496 90.945C159.936 90.945 158.506 91.335 157.206 92.115C155.95 92.8517 154.931 93.8917 154.151 95.235C153.371 96.5783 152.981 98.16 152.981 99.98V120H146.221ZM192.127 120.78C191.044 120.78 189.874 120.65 188.617 120.39C187.36 120.13 186.169 119.653 185.042 118.96C183.959 118.267 183.07 117.313 182.377 116.1C181.684 114.843 181.337 113.218 181.337 111.225C181.337 108.885 181.879 106.957 182.962 105.44C184.045 103.923 185.562 102.732 187.512 101.865C189.462 100.998 191.78 100.392 194.467 100.045C197.197 99.6983 200.165 99.525 203.372 99.525V96.145C203.372 95.0183 203.177 94.0217 202.787 93.155C202.44 92.2883 201.769 91.6167 200.772 91.14C199.819 90.6633 198.432 90.425 196.612 90.425C194.792 90.425 193.362 90.6633 192.322 91.14C191.325 91.5733 190.61 92.1367 190.177 92.83C189.787 93.48 189.592 94.195 189.592 94.975V95.95H183.092C183.049 95.7333 183.027 95.5167 183.027 95.3C183.027 95.0833 183.027 94.8233 183.027 94.52C183.027 92.4833 183.59 90.7717 184.717 89.385C185.887 87.955 187.512 86.8717 189.592 86.135C191.672 85.3983 194.077 85.03 196.807 85.03C199.754 85.03 202.202 85.4633 204.152 86.33C206.145 87.1533 207.64 88.345 208.637 89.905C209.634 91.465 210.132 93.35 210.132 95.56V112.915C210.132 113.738 210.327 114.323 210.717 114.67C211.15 115.017 211.649 115.19 212.212 115.19H214.552V119.74C214.032 119.957 213.382 120.173 212.602 120.39C211.822 120.607 210.912 120.715 209.872 120.715C208.702 120.715 207.705 120.498 206.882 120.065C206.102 119.675 205.452 119.112 204.932 118.375C204.455 117.595 204.13 116.728 203.957 115.775H203.567C202.787 116.772 201.834 117.66 200.707 118.44C199.624 119.177 198.367 119.74 196.937 120.13C195.507 120.563 193.904 120.78 192.127 120.78ZM194.012 115.19C195.355 115.19 196.59 114.995 197.717 114.605C198.887 114.172 199.884 113.587 200.707 112.85C201.53 112.07 202.18 111.16 202.657 110.12C203.134 109.037 203.372 107.867 203.372 106.61V104.335C200.382 104.335 197.76 104.508 195.507 104.855C193.254 105.202 191.499 105.852 190.242 106.805C188.985 107.715 188.357 108.993 188.357 110.64C188.357 111.637 188.574 112.482 189.007 113.175C189.44 113.825 190.09 114.323 190.957 114.67C191.824 115.017 192.842 115.19 194.012 115.19ZM248.734 120.78C245.354 120.78 242.364 120.282 239.764 119.285C237.208 118.245 235.193 116.772 233.719 114.865C232.246 112.958 231.509 110.683 231.509 108.04C231.509 105.007 232.289 102.602 233.849 100.825C235.453 99.0483 237.446 97.8133 239.829 97.12V96.86C237.749 95.9067 236.016 94.6717 234.629 93.155C233.243 91.6383 232.549 89.5367 232.549 86.85C232.549 84.2067 233.243 81.975 234.629 80.155C236.059 78.335 238.031 76.97 240.544 76.06C243.101 75.1067 246.069 74.63 249.449 74.63C252.699 74.63 255.559 75.1283 258.029 76.125C260.543 77.1217 262.493 78.5517 263.879 80.415C265.309 82.235 266.024 84.38 266.024 86.85V88.215H259.264V87.37C259.221 85.7233 258.788 84.38 257.964 83.34C257.141 82.3 255.993 81.5417 254.519 81.065C253.046 80.545 251.313 80.285 249.319 80.285C247.933 80.285 246.633 80.4367 245.419 80.74C244.206 81 243.144 81.4333 242.234 82.04C241.368 82.6033 240.696 83.34 240.219 84.25C239.743 85.16 239.504 86.2217 239.504 87.435C239.504 89.0383 239.894 90.3817 240.674 91.465C241.454 92.505 242.494 93.285 243.794 93.805C245.094 94.325 246.481 94.585 247.954 94.585H252.179V100.11H248.149C246.503 100.11 244.943 100.327 243.469 100.76C241.996 101.15 240.804 101.887 239.894 102.97C238.984 104.01 238.529 105.505 238.529 107.455C238.529 109.275 238.963 110.748 239.829 111.875C240.696 113.002 241.909 113.825 243.469 114.345C245.073 114.865 246.936 115.125 249.059 115.125C251.356 115.125 253.241 114.843 254.714 114.28C256.231 113.717 257.358 112.85 258.094 111.68C258.874 110.51 259.264 109.08 259.264 107.39V94.585H271.744V100.175H266.024V107.195C266.024 110.012 265.374 112.438 264.074 114.475C262.774 116.512 260.846 118.072 258.289 119.155C255.733 120.238 252.548 120.78 248.734 120.78ZM292.937 120V75.41H300.217V113.695H322.447V120H292.937ZM327.891 79.895V73.005H334.651V79.895H327.891ZM327.891 120V85.81H334.651V120H327.891ZM355.989 120.78C353.606 120.78 351.504 120.52 349.684 120C347.864 119.48 346.348 118.765 345.134 117.855C343.921 116.945 342.989 115.862 342.339 114.605C341.733 113.305 341.429 111.875 341.429 110.315C341.429 110.098 341.429 109.903 341.429 109.73C341.473 109.557 341.494 109.405 341.494 109.275H348.189C348.189 109.405 348.189 109.535 348.189 109.665C348.189 109.752 348.189 109.86 348.189 109.99C348.189 111.333 348.558 112.417 349.294 113.24C350.031 114.02 351.006 114.583 352.219 114.93C353.476 115.233 354.841 115.385 356.314 115.385C357.614 115.385 358.806 115.233 359.889 114.93C361.016 114.583 361.926 114.085 362.619 113.435C363.356 112.785 363.724 111.962 363.724 110.965C363.724 109.665 363.269 108.668 362.359 107.975C361.449 107.282 360.258 106.74 358.784 106.35C357.311 105.917 355.773 105.462 354.169 104.985C352.739 104.595 351.309 104.183 349.879 103.75C348.493 103.273 347.236 102.667 346.109 101.93C344.983 101.193 344.073 100.262 343.379 99.135C342.686 98.0083 342.339 96.6 342.339 94.91C342.339 93.3067 342.686 91.8983 343.379 90.685C344.073 89.4717 345.026 88.4533 346.239 87.63C347.496 86.8067 348.969 86.1783 350.659 85.745C352.393 85.3117 354.278 85.095 356.314 85.095C358.438 85.095 360.323 85.3333 361.969 85.81C363.616 86.2433 365.003 86.8717 366.129 87.695C367.299 88.5183 368.188 89.515 368.794 90.685C369.401 91.8117 369.704 93.025 369.704 94.325C369.704 94.585 369.683 94.8667 369.639 95.17C369.639 95.43 369.639 95.6033 369.639 95.69H363.009V95.105C363.009 94.2383 362.771 93.4583 362.294 92.765C361.818 92.0717 361.059 91.5083 360.019 91.075C359.023 90.6417 357.679 90.425 355.989 90.425C354.863 90.425 353.866 90.5333 352.999 90.75C352.133 90.9233 351.418 91.1833 350.854 91.53C350.291 91.8767 349.858 92.2883 349.554 92.765C349.294 93.2417 349.164 93.7833 349.164 94.39C349.164 95.3867 349.511 96.1667 350.204 96.73C350.941 97.25 351.894 97.705 353.064 98.095C354.234 98.4417 355.491 98.8317 356.834 99.265C358.394 99.6983 359.976 100.153 361.579 100.63C363.183 101.063 364.656 101.627 365.999 102.32C367.386 103.013 368.491 103.967 369.314 105.18C370.181 106.393 370.614 108.018 370.614 110.055C370.614 111.918 370.246 113.543 369.509 114.93C368.773 116.317 367.733 117.443 366.389 118.31C365.089 119.133 363.551 119.74 361.774 120.13C359.998 120.563 358.069 120.78 355.989 120.78ZM386.111 120.78C385.028 120.78 383.858 120.65 382.601 120.39C381.345 120.13 380.153 119.653 379.026 118.96C377.943 118.267 377.055 117.313 376.361 116.1C375.668 114.843 375.321 113.218 375.321 111.225C375.321 108.885 375.863 106.957 376.946 105.44C378.03 103.923 379.546 102.732 381.496 101.865C383.446 100.998 385.765 100.392 388.451 100.045C391.181 99.6983 394.15 99.525 397.356 99.525V96.145C397.356 95.0183 397.161 94.0217 396.771 93.155C396.425 92.2883 395.753 91.6167 394.756 91.14C393.803 90.6633 392.416 90.425 390.596 90.425C388.776 90.425 387.346 90.6633 386.306 91.14C385.31 91.5733 384.595 92.1367 384.161 92.83C383.771 93.48 383.576 94.195 383.576 94.975V95.95H377.076C377.033 95.7333 377.011 95.5167 377.011 95.3C377.011 95.0833 377.011 94.8233 377.011 94.52C377.011 92.4833 377.575 90.7717 378.701 89.385C379.871 87.955 381.496 86.8717 383.576 86.135C385.656 85.3983 388.061 85.03 390.791 85.03C393.738 85.03 396.186 85.4633 398.136 86.33C400.13 87.1533 401.625 88.345 402.621 89.905C403.618 91.465 404.116 93.35 404.116 95.56V112.915C404.116 113.738 404.311 114.323 404.701 114.67C405.135 115.017 405.633 115.19 406.196 115.19H408.536V119.74C408.016 119.957 407.366 120.173 406.586 120.39C405.806 120.607 404.896 120.715 403.856 120.715C402.686 120.715 401.69 120.498 400.866 120.065C400.086 119.675 399.436 119.112 398.916 118.375C398.44 117.595 398.115 116.728 397.941 115.775H397.551C396.771 116.772 395.818 117.66 394.691 118.44C393.608 119.177 392.351 119.74 390.921 120.13C389.491 120.563 387.888 120.78 386.111 120.78ZM387.996 115.19C389.34 115.19 390.575 114.995 391.701 114.605C392.871 114.172 393.868 113.587 394.691 112.85C395.515 112.07 396.165 111.16 396.641 110.12C397.118 109.037 397.356 107.867 397.356 106.61V104.335C394.366 104.335 391.745 104.508 389.491 104.855C387.238 105.202 385.483 105.852 384.226 106.805C382.97 107.715 382.341 108.993 382.341 110.64C382.341 111.637 382.558 112.482 382.991 113.175C383.425 113.825 384.075 114.323 384.941 114.67C385.808 115.017 386.826 115.19 387.996 115.19Z" fill="#D3D3D3"/>
<path d="M48.265 120V75.41H59.64L68.285 102.45C68.545 103.23 68.805 104.118 69.065 105.115C69.325 106.112 69.5633 107.065 69.78 107.975C70.04 108.885 70.235 109.687 70.365 110.38H70.885C70.9717 109.73 71.1233 108.95 71.34 108.04C71.5567 107.13 71.7733 106.177 71.99 105.18C72.25 104.183 72.51 103.252 72.77 102.385L81.48 75.41H92.66V120H85.445V95.56C85.445 93.9133 85.4667 92.2017 85.51 90.425C85.5533 88.6483 85.5967 87.0667 85.64 85.68C85.6833 84.2933 85.705 83.405 85.705 83.015H85.185C85.0983 83.4917 84.8817 84.315 84.535 85.485C84.2317 86.6117 83.9067 87.825 83.56 89.125C83.2133 90.425 82.8883 91.5517 82.585 92.505L73.55 120H67.115L58.08 92.57C57.82 91.7467 57.5383 90.7717 57.235 89.645C56.9317 88.5183 56.6283 87.37 56.325 86.2C56.0217 85.03 55.7617 83.9683 55.545 83.015H55.025C55.0683 84.055 55.09 85.3333 55.09 86.85C55.1333 88.3667 55.1767 89.905 55.22 91.465C55.2633 92.9817 55.285 94.3467 55.285 95.56V120H48.265ZM116.886 120.78C113.332 120.78 110.321 120.152 107.851 118.895C105.424 117.595 103.582 115.623 102.326 112.98C101.112 110.337 100.506 106.978 100.506 102.905C100.506 98.7883 101.112 95.43 102.326 92.83C103.582 90.1867 105.424 88.2367 107.851 86.98C110.321 85.68 113.332 85.03 116.886 85.03C120.526 85.03 123.559 85.68 125.986 86.98C128.412 88.2367 130.232 90.1867 131.446 92.83C132.702 95.43 133.331 98.7883 133.331 102.905C133.331 106.978 132.702 110.337 131.446 112.98C130.232 115.623 128.412 117.595 125.986 118.895C123.559 120.152 120.526 120.78 116.886 120.78ZM116.886 115.19C119.052 115.19 120.829 114.778 122.216 113.955C123.602 113.088 124.621 111.788 125.271 110.055C125.964 108.322 126.311 106.133 126.311 103.49V102.32C126.311 99.6767 125.964 97.4883 125.271 95.755C124.621 94.0217 123.602 92.7433 122.216 91.92C120.829 91.0533 119.052 90.62 116.886 90.62C114.762 90.62 113.007 91.0533 111.621 91.92C110.234 92.7433 109.194 94.0217 108.501 95.755C107.851 97.4883 107.526 99.6767 107.526 102.32V103.49C107.526 106.133 107.851 108.322 108.501 110.055C109.194 111.788 110.234 113.088 111.621 113.955C113.007 114.778 114.762 115.19 116.886 115.19ZM140.221 120V85.81H145.811L146.396 90.685H146.851C147.675 89.4283 148.65 88.3883 149.776 87.565C150.903 86.7417 152.138 86.1133 153.481 85.68C154.868 85.2467 156.385 85.03 158.031 85.03C160.198 85.03 162.105 85.42 163.751 86.2C165.398 86.9367 166.676 88.15 167.586 89.84C168.54 91.53 169.016 93.805 169.016 96.665V120H162.256V97.705C162.256 96.405 162.083 95.3217 161.736 94.455C161.433 93.5883 160.978 92.895 160.371 92.375C159.765 91.855 159.05 91.4867 158.226 91.27C157.403 91.0533 156.493 90.945 155.496 90.945C153.936 90.945 152.506 91.335 151.206 92.115C149.95 92.8517 148.931 93.8917 148.151 95.235C147.371 96.5783 146.981 98.16 146.981 99.98V120H140.221ZM186.127 120.78C185.044 120.78 183.874 120.65 182.617 120.39C181.36 120.13 180.169 119.653 179.042 118.96C177.959 118.267 177.07 117.313 176.377 116.1C175.684 114.843 175.337 113.218 175.337 111.225C175.337 108.885 175.879 106.957 176.962 105.44C178.045 103.923 179.562 102.732 181.512 101.865C183.462 100.998 185.78 100.392 188.467 100.045C191.197 99.6983 194.165 99.525 197.372 99.525V96.145C197.372 95.0183 197.177 94.0217 196.787 93.155C196.44 92.2883 195.769 91.6167 194.772 91.14C193.819 90.6633 192.432 90.425 190.612 90.425C188.792 90.425 187.362 90.6633 186.322 91.14C185.325 91.5733 184.61 92.1367 184.177 92.83C183.787 93.48 183.592 94.195 183.592 94.975V95.95H177.092C177.049 95.7333 177.027 95.5167 177.027 95.3C177.027 95.0833 177.027 94.8233 177.027 94.52C177.027 92.4833 177.59 90.7717 178.717 89.385C179.887 87.955 181.512 86.8717 183.592 86.135C185.672 85.3983 188.077 85.03 190.807 85.03C193.754 85.03 196.202 85.4633 198.152 86.33C200.145 87.1533 201.64 88.345 202.637 89.905C203.634 91.465 204.132 93.35 204.132 95.56V112.915C204.132 113.738 204.327 114.323 204.717 114.67C205.15 115.017 205.649 115.19 206.212 115.19H208.552V119.74C208.032 119.957 207.382 120.173 206.602 120.39C205.822 120.607 204.912 120.715 203.872 120.715C202.702 120.715 201.705 120.498 200.882 120.065C200.102 119.675 199.452 119.112 198.932 118.375C198.455 117.595 198.13 116.728 197.957 115.775H197.567C196.787 116.772 195.834 117.66 194.707 118.44C193.624 119.177 192.367 119.74 190.937 120.13C189.507 120.563 187.904 120.78 186.127 120.78ZM188.012 115.19C189.355 115.19 190.59 114.995 191.717 114.605C192.887 114.172 193.884 113.587 194.707 112.85C195.53 112.07 196.18 111.16 196.657 110.12C197.134 109.037 197.372 107.867 197.372 106.61V104.335C194.382 104.335 191.76 104.508 189.507 104.855C187.254 105.202 185.499 105.852 184.242 106.805C182.985 107.715 182.357 108.993 182.357 110.64C182.357 111.637 182.574 112.482 183.007 113.175C183.44 113.825 184.09 114.323 184.957 114.67C185.824 115.017 186.842 115.19 188.012 115.19ZM242.734 120.78C239.354 120.78 236.364 120.282 233.764 119.285C231.208 118.245 229.193 116.772 227.719 114.865C226.246 112.958 225.509 110.683 225.509 108.04C225.509 105.007 226.289 102.602 227.849 100.825C229.453 99.0483 231.446 97.8133 233.829 97.12V96.86C231.749 95.9067 230.016 94.6717 228.629 93.155C227.243 91.6383 226.549 89.5367 226.549 86.85C226.549 84.2067 227.243 81.975 228.629 80.155C230.059 78.335 232.031 76.97 234.544 76.06C237.101 75.1067 240.069 74.63 243.449 74.63C246.699 74.63 249.559 75.1283 252.029 76.125C254.543 77.1217 256.493 78.5517 257.879 80.415C259.309 82.235 260.024 84.38 260.024 86.85V88.215H253.264V87.37C253.221 85.7233 252.788 84.38 251.964 83.34C251.141 82.3 249.993 81.5417 248.519 81.065C247.046 80.545 245.313 80.285 243.319 80.285C241.933 80.285 240.633 80.4367 239.419 80.74C238.206 81 237.144 81.4333 236.234 82.04C235.368 82.6033 234.696 83.34 234.219 84.25C233.743 85.16 233.504 86.2217 233.504 87.435C233.504 89.0383 233.894 90.3817 234.674 91.465C235.454 92.505 236.494 93.285 237.794 93.805C239.094 94.325 240.481 94.585 241.954 94.585H246.179V100.11H242.149C240.503 100.11 238.943 100.327 237.469 100.76C235.996 101.15 234.804 101.887 233.894 102.97C232.984 104.01 232.529 105.505 232.529 107.455C232.529 109.275 232.963 110.748 233.829 111.875C234.696 113.002 235.909 113.825 237.469 114.345C239.073 114.865 240.936 115.125 243.059 115.125C245.356 115.125 247.241 114.843 248.714 114.28C250.231 113.717 251.358 112.85 252.094 111.68C252.874 110.51 253.264 109.08 253.264 107.39V94.585H265.744V100.175H260.024V107.195C260.024 110.012 259.374 112.438 258.074 114.475C256.774 116.512 254.846 118.072 252.289 119.155C249.733 120.238 246.548 120.78 242.734 120.78ZM286.937 120V75.41H294.217V113.695H316.447V120H286.937ZM321.891 79.895V73.005H328.651V79.895H321.891ZM321.891 120V85.81H328.651V120H321.891ZM349.989 120.78C347.606 120.78 345.504 120.52 343.684 120C341.864 119.48 340.348 118.765 339.134 117.855C337.921 116.945 336.989 115.862 336.339 114.605C335.733 113.305 335.429 111.875 335.429 110.315C335.429 110.098 335.429 109.903 335.429 109.73C335.473 109.557 335.494 109.405 335.494 109.275H342.189C342.189 109.405 342.189 109.535 342.189 109.665C342.189 109.752 342.189 109.86 342.189 109.99C342.189 111.333 342.558 112.417 343.294 113.24C344.031 114.02 345.006 114.583 346.219 114.93C347.476 115.233 348.841 115.385 350.314 115.385C351.614 115.385 352.806 115.233 353.889 114.93C355.016 114.583 355.926 114.085 356.619 113.435C357.356 112.785 357.724 111.962 357.724 110.965C357.724 109.665 357.269 108.668 356.359 107.975C355.449 107.282 354.258 106.74 352.784 106.35C351.311 105.917 349.773 105.462 348.169 104.985C346.739 104.595 345.309 104.183 343.879 103.75C342.493 103.273 341.236 102.667 340.109 101.93C338.983 101.193 338.073 100.262 337.379 99.135C336.686 98.0083 336.339 96.6 336.339 94.91C336.339 93.3067 336.686 91.8983 337.379 90.685C338.073 89.4717 339.026 88.4533 340.239 87.63C341.496 86.8067 342.969 86.1783 344.659 85.745C346.393 85.3117 348.278 85.095 350.314 85.095C352.438 85.095 354.323 85.3333 355.969 85.81C357.616 86.2433 359.003 86.8717 360.129 87.695C361.299 88.5183 362.188 89.515 362.794 90.685C363.401 91.8117 363.704 93.025 363.704 94.325C363.704 94.585 363.683 94.8667 363.639 95.17C363.639 95.43 363.639 95.6033 363.639 95.69H357.009V95.105C357.009 94.2383 356.771 93.4583 356.294 92.765C355.818 92.0717 355.059 91.5083 354.019 91.075C353.023 90.6417 351.679 90.425 349.989 90.425C348.863 90.425 347.866 90.5333 346.999 90.75C346.133 90.9233 345.418 91.1833 344.854 91.53C344.291 91.8767 343.858 92.2883 343.554 92.765C343.294 93.2417 343.164 93.7833 343.164 94.39C343.164 95.3867 343.511 96.1667 344.204 96.73C344.941 97.25 345.894 97.705 347.064 98.095C348.234 98.4417 349.491 98.8317 350.834 99.265C352.394 99.6983 353.976 100.153 355.579 100.63C357.183 101.063 358.656 101.627 359.999 102.32C361.386 103.013 362.491 103.967 363.314 105.18C364.181 106.393 364.614 108.018 364.614 110.055C364.614 111.918 364.246 113.543 363.509 114.93C362.773 116.317 361.733 117.443 360.389 118.31C359.089 119.133 357.551 119.74 355.774 120.13C353.998 120.563 352.069 120.78 349.989 120.78ZM380.111 120.78C379.028 120.78 377.858 120.65 376.601 120.39C375.345 120.13 374.153 119.653 373.026 118.96C371.943 118.267 371.055 117.313 370.361 116.1C369.668 114.843 369.321 113.218 369.321 111.225C369.321 108.885 369.863 106.957 370.946 105.44C372.03 103.923 373.546 102.732 375.496 101.865C377.446 100.998 379.765 100.392 382.451 100.045C385.181 99.6983 388.15 99.525 391.356 99.525V96.145C391.356 95.0183 391.161 94.0217 390.771 93.155C390.425 92.2883 389.753 91.6167 388.756 91.14C387.803 90.6633 386.416 90.425 384.596 90.425C382.776 90.425 381.346 90.6633 380.306 91.14C379.31 91.5733 378.595 92.1367 378.161 92.83C377.771 93.48 377.576 94.195 377.576 94.975V95.95H371.076C371.033 95.7333 371.011 95.5167 371.011 95.3C371.011 95.0833 371.011 94.8233 371.011 94.52C371.011 92.4833 371.575 90.7717 372.701 89.385C373.871 87.955 375.496 86.8717 377.576 86.135C379.656 85.3983 382.061 85.03 384.791 85.03C387.738 85.03 390.186 85.4633 392.136 86.33C394.13 87.1533 395.625 88.345 396.621 89.905C397.618 91.465 398.116 93.35 398.116 95.56V112.915C398.116 113.738 398.311 114.323 398.701 114.67C399.135 115.017 399.633 115.19 400.196 115.19H402.536V119.74C402.016 119.957 401.366 120.173 400.586 120.39C399.806 120.607 398.896 120.715 397.856 120.715C396.686 120.715 395.69 120.498 394.866 120.065C394.086 119.675 393.436 119.112 392.916 118.375C392.44 117.595 392.115 116.728 391.941 115.775H391.551C390.771 116.772 389.818 117.66 388.691 118.44C387.608 119.177 386.351 119.74 384.921 120.13C383.491 120.563 381.888 120.78 380.111 120.78ZM381.996 115.19C383.34 115.19 384.575 114.995 385.701 114.605C386.871 114.172 387.868 113.587 388.691 112.85C389.515 112.07 390.165 111.16 390.641 110.12C391.118 109.037 391.356 107.867 391.356 106.61V104.335C388.366 104.335 385.745 104.508 383.491 104.855C381.238 105.202 379.483 105.852 378.226 106.805C376.97 107.715 376.341 108.993 376.341 110.64C376.341 111.637 376.558 112.482 376.991 113.175C377.425 113.825 378.075 114.323 378.941 114.67C379.808 115.017 380.826 115.19 381.996 115.19Z" fill="#106C19"/>
</g>
<defs>
<clipPath id="clip0_53_1346">
<rect width="456" height="198" fill="white"/>
</clipPath>
</defs>
</svg>
